<svg width="1528" height="427" viewBox="0 0 1528 427" fill="none" xmlns="http://www.w3.org/2000/svg">
<path d="M46.7917 4.38623C61.2571 4.38623 71.8781 7.77453 78.6547 14.5511C85.5616 21.3277 89.015 31.3623 89.015 44.6548C89.015 57.9473 83.281 66.4832 71.8129 70.2625C77.8076 71.305 82.1733 74.4327 84.91 79.6455C87.6467 84.8582 89.015 93.5244 89.015 105.644V141.221H55.9792V101.93C55.9792 95.805 54.676 91.4393 52.0696 88.833C49.5935 86.2266 45.684 84.9234 40.3409 84.9234H34.281V141.221H0.072302V4.38623H46.7917ZM43.664 54.0378C49.5284 54.0378 53.5031 53.3862 55.5882 52.083C57.8036 50.6495 58.9113 48.2386 58.9113 44.8503C58.9113 41.462 57.7385 39.0511 55.3927 37.6176C53.1773 36.0537 49.2677 35.2718 43.664 35.2718H34.281V54.0378H43.664ZM181.212 4.38623V38.595H134.884V55.7971H174.957V89.8103H134.884V107.012H181.212V141.221H100.675V4.38623H181.212ZM247.322 110.531L272.343 4.38623H305.966L273.712 141.221H220.932L188.679 4.38623H222.301L247.322 110.531ZM304.171 72.2173C304.171 57.8822 307.169 45.3064 313.163 34.4899C319.158 23.5431 327.563 15.1376 338.38 9.2732C349.327 3.27853 361.902 0.28119 376.107 0.28119C390.442 0.28119 403.018 3.27853 413.835 9.2732C424.781 15.1376 433.252 23.5431 439.247 34.4899C445.242 45.3064 448.239 57.8822 448.239 72.2173C448.239 86.422 445.242 98.9978 439.247 109.945C433.252 120.761 424.781 129.167 413.835 135.161C403.018 141.156 390.442 144.153 376.107 144.153C361.902 144.153 349.327 141.156 338.38 135.161C327.563 129.167 319.158 120.761 313.163 109.945C307.169 98.9978 304.171 86.422 304.171 72.2173ZM337.012 72.2173C337.012 83.946 340.595 93.3941 347.763 100.562C354.93 107.729 364.379 111.313 376.107 111.313C387.966 111.313 397.48 107.729 404.647 100.562C411.815 93.3941 415.398 83.946 415.398 72.2173C415.398 60.4886 411.815 51.0404 404.647 43.8729C397.48 36.7053 387.966 33.1216 376.107 33.1216C364.379 33.1216 354.93 36.7053 347.763 43.8729C340.595 51.0404 337.012 60.4886 337.012 72.2173ZM494.152 4.38623V107.012H540.48V141.221H459.943V4.38623H494.152ZM649.104 93.5244C649.104 108.25 645.585 119.914 638.548 128.515C631.641 136.986 622.128 141.221 610.008 141.221H591.438C579.188 141.221 569.544 136.921 562.507 128.32C555.6 119.719 552.146 107.925 552.146 92.938V4.19076H585.182V93.1335C585.182 97.6946 586.225 101.474 588.31 104.471C590.525 107.469 593.523 108.967 597.302 108.967H604.144C607.923 108.967 610.725 107.534 612.549 104.667C614.504 101.669 615.481 97.8901 615.481 93.329V4.19076H649.104V93.5244ZM749.123 38.595H722.929V141.221H688.72V38.595H660.767V4.38623H749.123V38.595ZM760.797 4.38623H794.419V141.221H760.797V4.38623ZM806.23 72.2173C806.23 57.8822 809.228 45.3064 815.222 34.4899C821.217 23.5431 829.622 15.1376 840.439 9.2732C851.386 3.27853 863.962 0.28119 878.166 0.28119C892.501 0.28119 905.077 3.27853 915.894 9.2732C926.84 15.1376 935.311 23.5431 941.306 34.4899C947.301 45.3064 950.298 57.8822 950.298 72.2173C950.298 86.422 947.301 98.9978 941.306 109.945C935.311 120.761 926.84 129.167 915.894 135.161C905.077 141.156 892.501 144.153 878.166 144.153C863.962 144.153 851.386 141.156 840.439 135.161C829.622 129.167 821.217 120.761 815.222 109.945C809.228 98.9978 806.23 86.422 806.23 72.2173ZM839.071 72.2173C839.071 83.946 842.654 93.3941 849.822 100.562C856.989 107.729 866.438 111.313 878.166 111.313C890.025 111.313 899.539 107.729 906.706 100.562C913.874 93.3941 917.457 83.946 917.457 72.2173C917.457 60.4886 913.874 51.0404 906.706 43.8729C899.539 36.7053 890.025 33.1216 878.166 33.1216C866.438 33.1216 856.989 36.7053 849.822 43.8729C842.654 51.0404 839.071 60.4886 839.071 72.2173ZM1041.95 91.3742V4.38623H1076.16V141.221H1025.34L996.211 55.9926V141.221H962.002V4.38623H1012.24L1041.95 91.3742ZM1087.8 4.38623H1121.43V141.221H1087.8V4.38623ZM1133.24 4.38623H1230.19V38.595H1229.8L1230.19 39.1814L1173.7 107.012H1230.19V141.221H1133.24V107.012L1190.12 38.595H1133.24V4.38623ZM1241.86 4.38623H1275.48V141.221H1241.86V4.38623ZM1367.24 91.3742V4.38623H1401.45V141.221H1350.63L1321.5 55.9926V141.221H1287.29V4.38623H1337.53L1367.24 91.3742ZM1498.91 7.70937C1506.47 10.837 1512.26 14.6814 1516.3 19.2426V50.3237C1510.83 47.0657 1504.58 44.329 1497.54 42.1136C1490.63 39.8982 1483.79 38.7904 1477.01 38.7904C1470.76 38.7904 1465.41 40.5498 1460.98 44.0684C1456.68 47.587 1453.43 52.0178 1451.21 57.3609C1448.99 62.5737 1447.89 67.7213 1447.89 72.8037C1447.89 81.5351 1449.97 89.3542 1454.14 96.2611C1458.31 103.168 1465.09 106.621 1474.47 106.621C1481.51 106.621 1486.79 104.862 1490.31 101.344C1493.95 97.6946 1496.04 92.8077 1496.56 86.6827H1475.45V60.4886H1527.84V110.14C1524.58 119.132 1518.32 126.821 1509.07 133.207C1499.95 139.462 1488.03 142.59 1473.3 142.59C1461.83 142.59 1451.54 139.983 1442.41 134.77C1433.42 129.427 1426.25 121.543 1420.91 111.117C1415.7 100.562 1413.09 87.7904 1413.09 72.8037C1413.09 57.0351 1415.83 43.9381 1421.3 33.5125C1426.91 22.9567 1434.2 15.2027 1443.2 10.2506C1452.19 5.29847 1462.03 2.82241 1472.71 2.82241C1482.75 2.82241 1491.48 4.4514 1498.91 7.70937ZM88.7632 163.705C116.198 163.705 136.341 170.131 149.193 182.983C162.293 195.835 168.843 214.866 168.843 240.077C168.843 265.287 157.968 281.476 136.218 288.643C147.587 290.621 155.867 296.552 161.057 306.439C166.247 316.325 168.843 332.761 168.843 355.747V423.221H106.188V348.703C106.188 337.086 103.716 328.807 98.7731 323.863C94.0771 318.92 86.6624 316.449 76.5289 316.449H65.036V423.221H0.156866V163.705H88.7632ZM82.8314 257.872C93.9536 257.872 101.492 256.636 105.446 254.165C109.648 251.446 111.749 246.874 111.749 240.447C111.749 234.021 109.525 229.449 105.076 226.73C100.874 223.764 93.4592 222.281 82.8314 222.281H65.036V257.872H82.8314ZM378.55 423.221H313.671L308.11 386.518H261.397L255.836 423.221H190.957L231.367 163.705H338.139L378.55 423.221ZM298.471 326.459L284.753 237.481L271.036 326.459H298.471ZM395.876 163.705H459.643V423.221H395.876V163.705ZM546.923 163.705V358.342H634.788V423.221H482.044V163.705H546.923ZM721.659 354.264L747.611 163.705H854.013L880.335 354.264L906.287 163.705H970.054L934.463 423.221H825.836L800.997 240.818L775.787 423.221H667.161L631.57 163.705H695.337L721.659 354.264ZM1149.35 423.221H1084.47L1078.91 386.518H1032.2L1026.64 423.221H961.758L1002.17 163.705H1108.94L1149.35 423.221ZM1069.27 326.459L1055.55 237.481L1041.84 326.459H1069.27ZM1237.23 250.087L1272.08 163.705H1343.26L1270.22 326.829V423.221H1205.34V329.424L1131.2 163.705H1202.38L1237.23 250.087ZM1480.64 169.636C1494.73 174.827 1505.98 181.253 1514.38 188.915V258.614C1484.47 234.886 1457.41 223.023 1433.19 223.023C1414.9 223.023 1405.75 228.46 1405.75 239.335C1405.75 243.29 1410.2 247.491 1419.1 251.94C1428.25 256.142 1442.7 261.209 1462.48 267.141C1483.98 273.567 1500.17 282.588 1511.04 294.204C1521.92 305.821 1527.36 322.998 1527.36 345.737C1527.36 360.319 1523.65 373.789 1516.23 386.147C1509.07 398.258 1498.44 408.021 1484.35 415.436C1470.26 422.603 1453.21 426.187 1433.19 426.187C1415.39 426.187 1398.34 422.48 1382.03 415.065C1365.71 407.403 1351.75 398.135 1340.13 387.26L1338.65 314.595C1354.22 328.189 1370.66 339.311 1387.96 347.961C1405.51 356.612 1421.33 360.937 1435.41 360.937C1443.57 360.937 1450.12 359.331 1455.06 356.118C1460.25 352.905 1462.85 348.95 1462.85 344.254C1462.85 341.041 1461.37 338.199 1458.4 335.727C1455.43 333.255 1449.87 330.537 1441.72 327.571C1433.56 324.605 1420.71 320.28 1403.16 314.595C1385.86 309.157 1370.78 300.136 1357.93 287.531C1345.32 274.926 1339.02 257.996 1339.02 236.74C1339.02 223.146 1343.1 210.541 1351.26 198.925C1359.66 187.308 1371.03 178.163 1385.36 171.49C1399.7 164.817 1415.64 161.48 1433.19 161.48C1450.74 161.48 1466.56 164.199 1480.64 169.636Z" fill="url(#paint0_linear_359_440)"/>
<defs>
<linearGradient id="paint0_linear_359_440" x1="764" y1="18.2212" x2="764" y2="422.98" gradientUnits="userSpaceOnUse">
<stop stop-color="#354C9E"/>
<stop offset="1" stop-color="#354C9E" stop-opacity="0"/>
</linearGradient>
</defs>
</svg>
